<svg width="202" height="61" viewBox="0 0 202 61" fill="none" xmlns="http://www.w3.org/2000/svg">
<g clip-path="url(#clip0_1_495)">
<path d="M187.329 3.60538L169.126 28.4788C163.253 36.0537 157.853 42.0627 152.44 45.3403C142.757 51.2036 133.316 50.196 127.891 45.049C121.083 38.5787 120.732 29.2679 126.411 18.8402L124.797 19.2408C109.13 44.6119 130.876 66.5355 153.496 59.2762C162.561 56.3628 167.1 52.551 176.893 39.2949C183.215 30.7246 202.012 0.012146 202.012 0.012146L187.341 3.61752L187.329 3.60538ZM173.143 7.15006C162.003 20.8553 153.678 33.7715 141.337 37.3891C131.265 40.3389 123.899 30.4818 131.35 17.602L130.027 17.9176C119.579 34.7184 130.112 47.8046 142.89 45.7773C158.229 43.3495 169.041 22.9069 183.033 4.68578L173.143 7.1622V7.15006ZM160.753 10.2456C153.557 18.9373 147.465 27.1556 140.718 28.7095C134.238 30.3483 130.998 24.57 135.585 16.5459L134.711 16.7644C127.879 27.799 133.218 36.3329 141.689 33.8929C151.3 31.1252 159.697 19.8113 168.75 8.25473L160.753 10.2456ZM144.176 14.3972C144.176 14.3972 141.094 23.8902 141.021 24.1329C140.766 24.8977 142.016 26.2088 143.436 24.4121C145.681 21.5715 150.839 12.7099 150.839 12.7099L144.176 14.3972V14.3972Z" fill="white"/>
<path d="M109.846 44.5634C108.281 43.1552 106.364 42.439 104.106 42.439C102.65 42.439 101.34 42.7789 100.199 43.4587C99.2161 44.0657 98.5001 44.8304 98.0511 45.753C97.9298 44.4541 97.7599 43.5558 97.5657 43.0581H92.4447C92.651 44.4056 92.7724 45.1946 92.7845 45.4617C92.7966 45.6559 92.8088 45.8501 92.8088 46.0322V60.3809H98.0511V50.9608C98.0511 49.5162 98.5244 48.2901 99.4952 47.3069C100.393 46.3964 101.413 45.9351 102.541 45.9351C103.67 45.9351 104.677 46.36 105.514 47.2219C106.351 48.0838 106.813 49.1763 106.91 50.5238C107.043 52.3568 106.643 53.9228 105.72 55.2095C104.713 56.6177 103.33 57.3096 101.558 57.3096C100.939 57.3096 100.345 57.2125 99.75 57.0304L100.866 60.3688C101.413 60.4901 102.092 60.563 102.905 60.563H103.269C106.072 60.563 108.305 59.6768 109.98 57.8923C111.654 56.12 112.492 53.7771 112.492 50.8637C112.492 50.633 112.48 50.4024 112.455 50.1717C112.298 47.8653 111.412 45.9958 109.822 44.5391M88.1732 56.8848V49.8076C88.1732 49.6012 88.1732 49.3948 88.161 49.2006C88.0033 47.0277 87.0689 45.3282 85.3457 44.1142C83.6711 42.9489 81.4868 42.354 78.7807 42.354C76.3779 42.354 74.3756 42.6454 72.7617 43.2281L72.3491 46.7363C73.5383 46.0929 75.0067 45.7652 76.742 45.7652C78.4773 45.7652 79.9456 46.1779 81.0863 47.0155C82.227 47.8531 82.8459 48.9942 82.943 50.4509C82.943 50.5845 82.9551 50.718 82.943 50.8515V56.8848H71.8879V60.3566H90.5274V56.8848H88.1853H88.1732ZM67.6649 44.6605C66.1602 43.4344 64.3521 42.8153 62.2042 42.8153C61.7552 42.8153 61.112 42.9731 60.2747 43.2888L58.7093 46.4328C59.3282 46.2386 59.9471 46.1415 60.5659 46.1415C61.7188 46.1415 62.6774 46.4935 63.4177 47.1976C64.2671 47.9988 64.7525 49.1763 64.8618 50.7423C64.8739 50.9608 64.886 51.1914 64.8982 51.4221C64.8982 53.1944 64.4613 54.6026 63.6118 55.6466C62.8231 56.5934 61.8401 57.0669 60.6752 57.0669C59.5102 57.0669 58.5273 56.6663 57.7385 55.8651C56.9497 55.0639 56.5128 53.9956 56.4158 52.6482C56.4158 52.4903 56.4036 52.3204 56.4036 52.1626V43.046H51.1613V51.5556C51.1613 51.8955 51.1734 52.2111 51.1977 52.5268C51.3918 55.3552 52.4597 57.5039 54.3771 58.9727C56.1124 60.3081 58.3938 60.9757 61.197 60.9757C64.0002 60.9757 66.0874 60.0895 67.8348 58.3172C69.5823 56.5449 70.4681 54.2748 70.4681 51.4949V51.1793C70.4681 50.9122 70.4681 50.6452 70.4439 50.3781C70.274 47.9381 69.3517 46.0322 67.6649 44.6605M45.1666 44.1871C43.2614 42.9731 40.895 42.3662 38.0797 42.3662C36.8905 42.3662 35.41 42.5483 33.6504 42.9003C32.1699 43.2038 31.1021 43.483 30.4468 43.75V60.3566H35.6891V46.0201C36.308 45.9351 36.8905 45.8987 37.4608 45.8987C41.1377 45.8987 43.0793 47.4404 43.2856 50.5238C43.2978 50.6937 43.3099 50.8758 43.3099 51.0579V60.3566H48.5401V50.1596C48.5401 49.9775 48.5401 49.7833 48.5158 49.6012C48.3581 47.2947 47.2417 45.486 45.1666 44.1749M22.2556 43.0338V53.7164L22.5468 53.8864L27.4737 51.1186V43.0217H22.2556V43.0338ZM14.7076 50.0018V56.8484H6.35869V46.1658C7.06253 45.9473 7.83917 45.838 8.66435 45.838C10.2055 45.838 11.5525 46.1779 12.7175 46.8577C13.9674 47.6103 14.6227 48.5815 14.7076 49.759V50.0018V50.0018ZM16.6007 44.1506C14.6105 42.961 12.0015 42.3662 8.76143 42.3662C7.03826 42.3662 5.31508 42.524 3.57977 42.8396C1.96581 43.1309 0.764436 43.483 -0.012207 43.8836C0.691626 45.486 1.05568 46.5299 1.09208 47.0277C1.09208 47.1248 1.09208 47.2097 1.09208 47.2826V60.3688H19.9257V49.8197C19.9257 49.6497 19.9135 49.4798 19.9014 49.3098C19.7436 47.1005 18.6394 45.3767 16.5885 44.1506M109.846 20.3333C108.281 18.9252 106.364 18.209 104.106 18.209C102.65 18.209 101.34 18.5489 100.199 19.2287C99.2161 19.8356 98.5001 20.6004 98.0511 21.523C97.9298 20.2241 97.7599 19.3258 97.5657 18.8281H92.4447C92.651 20.1755 92.7724 20.9767 92.7845 21.2316C92.7966 21.4259 92.8088 21.6201 92.8088 21.8022V36.1508H98.0511V26.7307C98.0511 25.2862 98.5244 24.0601 99.4952 23.0768C100.393 22.1664 101.413 21.7051 102.541 21.7051C103.67 21.7051 104.677 22.1299 105.514 22.9918C106.351 23.8537 106.813 24.9463 106.91 26.2937C107.031 28.1268 106.643 29.6927 105.72 30.9916C104.713 32.3877 103.33 33.0917 101.558 33.0917C100.939 33.0917 100.345 32.9946 99.75 32.8125L100.866 36.1508C101.413 36.2722 102.092 36.3451 102.905 36.3451H103.269C106.072 36.3451 108.305 35.4589 109.98 33.6744C111.654 31.9021 112.492 29.5592 112.492 26.6458C112.492 26.4151 112.48 26.1845 112.455 25.9538C112.298 23.6474 111.412 21.7658 109.822 20.3212M82.6275 18.1483C81.414 18.1483 80.3825 18.3668 79.5452 18.7916L78.7928 21.9843C79.5209 21.6929 80.2126 21.5473 80.8436 21.5473C82.7852 21.5473 83.8167 22.3849 83.938 24.0722C83.938 24.1815 83.938 24.2786 83.938 24.3879V32.679H78.0404V36.1508H89.1925V24.0965C89.1925 23.8537 89.1925 23.6231 89.1683 23.4046C88.9256 19.9085 86.7412 18.1604 82.6153 18.1604M70.638 18.8402V36.163H75.844V18.8402H70.638V18.8402ZM64.1701 19.9327C62.4226 18.7552 60.1776 18.1604 57.423 18.1604C54.8625 18.1604 52.7631 18.561 51.1127 19.3379L50.6637 22.8097C52.0957 21.9721 53.6732 21.5594 55.3843 21.5594C57.2409 21.5594 58.7336 21.9236 59.8742 22.6398C61.1363 23.441 61.8159 24.6306 61.9251 26.1966C61.9251 26.3423 61.9372 26.5001 61.9372 26.6458V36.1508H67.1674V25.6018C67.1674 25.4197 67.1674 25.2255 67.1674 25.0434C67.0097 22.8704 66.0146 21.1588 64.1701 19.9206M32.1821 26.4758V36.1508H37.388V26.4758H32.1821ZM46.4772 19.9449C44.6326 18.7552 42.327 18.1483 39.548 18.1483C36.9633 18.1483 34.512 18.561 32.1699 19.3986L31.7573 22.8704C33.8324 21.9964 35.7862 21.5473 37.655 21.5473C39.5238 21.5473 41.0771 21.9114 42.242 22.6277C43.589 23.4531 44.3171 24.6428 44.4263 26.2209C44.4263 26.3666 44.4385 26.5001 44.4385 26.6336V36.1387H49.6565V25.5896C49.6565 25.4197 49.6565 25.2376 49.6565 25.0677C49.4988 22.9069 48.4552 21.1831 46.5014 19.9206" fill="white"/>
</g>
<defs>
<clipPath id="clip0_1_495">
<rect width="202" height="61" fill="white"/>
</clipPath>
</defs>
</svg>
