<svg width="40" height="30" viewBox="0 0 40 30" fill="none" xmlns="http://www.w3.org/2000/svg">
<g clip-path="url(#clip0_1_1165)">
<path d="M35.9138 30.0005C36.7852 30.0005 37.5399 29.7131 38.1808 29.1459L27.2023 18.1674C26.9395 18.3564 26.6828 18.5393 26.4415 18.7145C25.6208 19.3201 24.9537 19.792 24.4419 20.1301C23.9301 20.4698 23.2492 20.8156 22.3993 21.1675C21.5478 21.521 20.7563 21.6978 20.0201 21.6978H19.977C19.2408 21.6978 18.4493 21.521 17.5978 21.1675C16.7463 20.814 16.0655 20.4682 15.5536 20.1301C15.0418 19.792 14.3748 19.3201 13.5525 18.7145C13.3235 18.547 13.0699 18.3626 12.7948 18.1643L1.81628 29.1459C2.45873 29.7146 3.21338 30.0005 4.08484 30.0005H35.9138Z" fill="#A191F6"/>
<path d="M3.25458 11.2522C2.43231 10.7051 1.70379 10.078 1.07056 9.37097V26.0747L10.7473 16.398C8.8107 15.047 6.31775 13.3333 3.25458 11.2522" fill="#A191F6"/>
<path d="M36.7653 11.2522C33.8189 13.2457 31.3168 14.9624 29.2542 16.4026L38.9263 26.0747V9.37097C38.3069 10.0626 37.586 10.6897 36.7637 11.2522" fill="#A191F6"/>
<path d="M35.9136 0H4.0847C2.97348 0 2.12046 0.375019 1.52259 1.12352C0.923171 1.87356 0.625 2.81111 0.625 3.93616C0.625 4.84451 1.02154 5.82817 1.81461 6.88867C2.60768 7.94764 3.45147 8.78067 4.34445 9.38624C4.83474 9.73206 6.31176 10.7603 8.77705 12.4679C10.1081 13.39 11.2654 14.1939 12.2598 14.887C13.1067 15.4772 13.8383 15.989 14.4423 16.4132C14.5115 16.4624 14.6206 16.5393 14.765 16.6438C14.9203 16.756 15.1185 16.8974 15.3614 17.0741C15.8302 17.4123 16.219 17.6874 16.5295 17.8964C16.8384 18.1054 17.215 18.3391 17.6545 18.5988C18.0941 18.8585 18.5091 19.0537 18.8979 19.1828C19.2868 19.312 19.648 19.378 19.9784 19.378H20.0215C20.3534 19.378 20.7131 19.3135 21.1019 19.1828C21.4908 19.0537 21.9058 18.8585 22.3453 18.5988C22.7849 18.3391 23.1599 18.1054 23.4704 17.8964C23.7809 17.6874 24.1697 17.4138 24.6385 17.0741C24.8813 16.8989 25.0781 16.756 25.2348 16.6453C25.3793 16.5408 25.4884 16.464 25.5576 16.4148C26.0279 16.0874 26.761 15.5787 27.7462 14.8932C29.5383 13.6482 32.1788 11.8146 35.6785 9.38624C36.7313 8.65157 37.6104 7.76474 38.3159 6.72729C39.0214 5.68984 39.3749 4.60167 39.3749 3.46278C39.3749 2.5114 39.0321 1.69681 38.3482 1.01901C37.6627 0.341206 36.8512 0.00307393 35.9152 0.00307393" fill="#A191F6"/>
</g>
<defs>
<clipPath id="clip0_1_1165">
<rect width="38.7499" height="30" fill="white" transform="translate(0.625)"/>
</clipPath>
</defs>
</svg>
