<svg width="32" height="30" viewBox="0 0 32 30" fill="none" xmlns="http://www.w3.org/2000/svg">
<path d="M30.3593 23.7275L25.7154 19.0837C24.7913 18.1634 23.2588 18.1903 22.3012 19.1478L19.9626 21.4877C19.815 21.4056 19.6623 21.3209 19.5006 21.2297C18.0232 20.4108 16.0017 19.2903 13.8736 17.1597C11.7403 15.0264 10.6172 13.001 9.79578 11.5224C9.7085 11.3658 9.62635 11.2143 9.5442 11.0719L11.114 9.50466L11.8854 8.73198C12.8442 7.77318 12.8698 6.24192 11.9483 5.31778L7.30572 0.673959C6.38286 -0.248901 4.85161 -0.220663 3.89281 0.738136L2.5836 2.05376L2.61954 2.0897C2.18057 2.64932 1.81348 3.29493 1.54137 3.99189C1.2898 4.65419 1.13321 5.28698 1.06133 5.92104C0.449086 11.0038 2.771 15.6502 9.07443 21.9536C17.7883 30.6663 24.8106 30.0078 25.1135 29.977C25.7732 29.8974 26.406 29.7408 27.0477 29.4905C27.7383 29.2197 28.3839 28.8552 28.9435 28.4162L28.9718 28.4419L30.2977 27.1442C31.2552 26.1855 31.2821 24.6542 30.3593 23.7288" fill="#A191F6"/>
</svg>
