<svg width="34" height="34" viewBox="0 0 34 34" fill="none" xmlns="http://www.w3.org/2000/svg">
<path d="M17 0.5C12.6241 0.5 8.42751 2.23831 5.33255 5.33255C2.23831 8.42705 0.5 12.6236 0.5 17C0.5 21.3764 2.23831 25.5725 5.33255 28.6674C8.42705 31.7617 12.6236 33.5 17 33.5C21.3764 33.5 25.5725 31.7617 28.6674 28.6674C31.7617 25.5729 33.5 21.3764 33.5 17C33.4961 12.6251 31.7563 8.4308 28.6628 5.33715C25.5694 2.24351 21.375 0.503815 17 0.5V0.5ZM23.1394 18.5343H18.5348V23.1389C18.5348 23.6873 18.2424 24.194 17.7675 24.4682C17.2927 24.7423 16.7073 24.7423 16.2325 24.4682C15.7576 24.194 15.4652 23.6873 15.4652 23.1389V18.5343H10.8606C10.3123 18.5343 9.80554 18.2419 9.53137 17.7671C9.25719 17.2922 9.25719 16.7069 9.53137 16.232C9.80554 15.7572 10.3122 15.4648 10.8606 15.4648H15.4652V10.8601C15.4652 10.3118 15.7576 9.80508 16.2325 9.53091C16.7073 9.25674 17.2926 9.25674 17.7675 9.53091C18.2424 9.80508 18.5348 10.3118 18.5348 10.8601V15.4648H23.1394C23.6877 15.4648 24.1944 15.7572 24.4686 16.232C24.7428 16.7069 24.7428 17.2922 24.4686 17.7671C24.1944 18.2419 23.6877 18.5343 23.1394 18.5343Z" fill="#A191F6"/>
</svg>
