<svg width="26" height="25" viewBox="0 0 26 25" fill="none" xmlns="http://www.w3.org/2000/svg">
<path d="M20.4169 10.1993C22.9699 10.1993 25.0336 8.12781 25.0336 5.58237C25.0336 3.02934 22.97 0.957886 20.4169 0.957886C17.8638 0.957886 15.7924 3.02934 15.7924 5.58237C15.7924 5.98024 15.8587 6.3601 15.954 6.72879L10.6307 9.44615C9.62614 8.2626 8.13095 7.50942 6.4559 7.50942C3.42545 7.50942 0.966064 9.96843 0.966064 12.9993C0.966064 16.0209 3.42529 18.48 6.4559 18.48C7.99326 18.48 9.37934 17.8454 10.3738 16.8276L13.8746 18.9074C13.7256 19.3615 13.6246 19.8374 13.6246 20.3411C13.6246 22.8866 15.6961 24.9579 18.2491 24.9579C20.8022 24.9579 22.8659 22.8864 22.8659 20.3411C22.8659 17.7881 20.802 15.7167 18.2491 15.7167C16.9228 15.7167 15.7347 16.2833 14.8913 17.1785L11.4925 15.1595C11.7775 14.4962 11.9368 13.7661 11.9368 12.9993C11.9368 12.3645 11.8239 11.7574 11.626 11.1902L16.8718 8.51225C17.7203 9.53339 18.9846 10.199 20.4166 10.199L20.4169 10.1993Z" fill="#333333"/>
</svg>
