<svg width="37" height="36" viewBox="0 0 37 36" fill="none" xmlns="http://www.w3.org/2000/svg">
<path fill-rule="evenodd" clip-rule="evenodd" d="M0.826213 17.999C0.82273 21.4235 1.81944 24.7743 3.69461 27.6397C5.37926 25.6799 7.43288 24.0703 9.73876 22.9032C10.1008 22.7201 10.4666 22.5502 10.8365 22.3934C10.7062 20.9704 10.6406 19.4983 10.6406 18.0002C10.6406 16.3927 10.7191 14.814 10.8684 13.2958H10.8681C8.15674 12.1546 5.74266 10.4073 3.81117 8.18831C1.86286 11.0891 0.823531 14.5047 0.825932 17.9991L0.826213 17.999ZM15.0087 35.3272C10.9963 34.5138 7.39055 32.3336 4.80612 29.1584C6.49207 27.0833 8.62774 25.4185 11.0518 24.29C11.3503 26.6666 11.9147 29.0019 12.734 31.2522C13.2542 32.7305 14.0236 34.1088 15.009 35.3272H15.0087ZM18.5002 35.3684C20.7988 35.3684 23.3089 30.7396 24.1978 23.5899C20.5013 22.3453 16.4994 22.3453 12.8028 23.5899C13.6918 30.7402 16.2018 35.3684 18.5004 35.3684H18.5002ZM32.1948 29.1584C29.6106 32.3336 26.0044 34.5138 21.9923 35.3271C22.9782 34.1094 23.7482 32.7316 24.2687 31.2536C25.0877 29.0026 25.6515 26.6668 25.9495 24.2899C28.3736 25.4182 30.5095 27.083 32.1952 29.1584H32.1948ZM33.1929 8.18654C31.2612 10.4058 28.8468 12.1534 26.1346 13.2948C26.2847 14.8146 26.3624 16.3921 26.3624 17.9992C26.3624 19.4973 26.2946 20.9694 26.1665 22.3925C26.5358 22.5511 26.9016 22.721 27.2642 22.9022V22.9019C29.5695 24.0696 31.6226 25.6794 33.3061 27.6399C35.1969 24.7434 36.1941 21.3551 36.174 17.8963C36.1539 14.4375 35.1173 11.061 33.1928 8.18701L33.1929 8.18654ZM24.2685 4.74816C23.7483 3.26906 22.9783 1.88998 21.9921 0.67111C25.937 1.47107 29.4908 3.59254 32.0677 6.68494C30.393 8.69705 28.2871 10.3072 25.9062 11.3958C25.6025 9.12722 25.0531 6.89824 24.2685 4.74809V4.74816ZM11.0952 11.3961C8.71405 10.3075 6.60815 8.69787 4.9329 6.68604C7.50944 3.59281 11.0638 1.47107 15.0092 0.67111C14.023 1.88998 13.253 3.26906 12.7328 4.74816C11.9484 6.89858 11.3993 9.12749 11.0951 11.3961H11.0952ZM12.8444 12.0821C14.6649 12.6849 16.5701 12.9917 18.4879 12.9906H18.5008C20.4229 12.993 22.3326 12.6862 24.1571 12.0821C23.2323 5.11781 20.764 0.631592 18.5008 0.631592C16.2375 0.631592 13.7693 5.11788 12.8444 12.0821H12.8444ZM12.4673 17.9992C12.4673 19.296 12.5183 20.543 12.6137 21.7321H12.6134C16.4457 20.5267 20.556 20.5267 24.3878 21.7321C24.4829 20.543 24.5341 19.296 24.5341 17.9992C24.5341 16.5823 24.4732 15.2252 24.3604 13.9377H24.3602C22.4622 14.5241 20.4868 14.8211 18.5004 14.8189H18.4867C16.5049 14.8195 14.5344 14.5223 12.6407 13.9377C12.5276 15.2252 12.467 16.5821 12.467 17.9992H12.4673Z" fill="white"/>
</svg>
