<svg width="33" height="36" viewBox="0 0 33 36" fill="none" xmlns="http://www.w3.org/2000/svg">
<g clip-path="url(#clip0_18_214)">
<path d="M9.9631 27.5511C6.29521 27.5511 2.51836 26.7522 0.375732 25.2996V28.6769C0.375732 30.0569 4.00731 31.9817 9.9631 31.9817C11.452 31.9817 12.7957 31.8727 13.9578 31.6548C13.1952 30.3838 12.6868 28.9675 12.4689 27.4422C11.6336 27.5148 10.7984 27.5511 9.9631 27.5511Z" fill="white"/>
<path d="M9.96294 25.8443C10.8345 25.8443 11.6335 25.808 12.3961 25.7353C12.4324 24.1011 12.8319 22.5759 13.5219 21.1959C12.3598 21.3774 11.1614 21.4501 9.99926 21.4501C6.33137 21.4501 2.55452 20.6511 0.411891 19.1985V22.5759C0.375575 23.9195 4.00715 25.8443 9.96294 25.8443Z" fill="white"/>
<path d="M9.9631 19.6705C11.7789 19.6705 13.3768 19.4889 14.7568 19.1984C15.9915 17.6368 17.662 16.4021 19.5505 15.6758V12.9884C17.4078 14.4774 13.631 15.24 9.9631 15.24C6.29521 15.24 2.51836 14.441 0.375732 12.9884V16.3658C0.375732 17.7458 4.00731 19.6705 9.9631 19.6705Z" fill="white"/>
<path d="M9.9631 13.5332C15.9189 13.5332 19.5505 11.6084 19.5505 10.2284V6.85107C17.4078 8.34002 13.631 9.10265 9.9631 9.10265C6.29521 9.10265 2.51836 8.30371 0.375732 6.85107V10.2284C0.375732 11.6084 4.00731 13.5332 9.9631 13.5332Z" fill="white"/>
<path d="M9.9631 7.35947C15.9189 7.35947 19.5505 5.43474 19.5505 4.05474C19.5505 2.67474 15.9189 0.75 9.9631 0.75C4.00731 0.75 0.375732 2.67474 0.375732 4.05474C0.375732 5.43474 4.00731 7.35947 9.9631 7.35947Z" fill="white"/>
<path d="M23.3636 16.7289C18.2793 16.7289 14.103 20.9052 14.103 25.9894C14.103 31.0736 18.243 35.2499 23.3636 35.2499C28.4841 35.2499 32.6241 31.1099 32.6241 25.9894C32.6241 20.8689 28.4841 16.7289 23.3636 16.7289ZM20.3396 28.8817C20.3396 28.9654 20.313 29.0334 20.2599 29.0866C20.2067 29.1398 20.1386 29.1664 20.0549 29.1664H18.7767C18.7009 29.1664 18.6341 29.1398 18.577 29.0866C18.5206 29.0334 18.4914 28.9654 18.4914 28.8817V22.9369C18.4914 22.8526 18.5206 22.7845 18.577 22.7314C18.6341 22.6782 18.7009 22.6516 18.7767 22.6516H22.5082C23.2001 22.6516 23.7779 22.7469 24.2423 22.9369C24.7059 23.1269 25.0561 23.4317 25.2915 23.85C25.5276 24.2683 25.6456 24.8195 25.6456 25.5037V26.7021C25.6456 26.7786 25.6171 26.8448 25.56 26.9018C25.5029 26.9589 25.4361 26.9874 25.3603 26.9874H24.0821C23.9984 26.9874 23.9297 26.9609 23.8772 26.9077C23.8233 26.8545 23.7974 26.7858 23.7974 26.7021V25.5037C23.7974 25.0627 23.6891 24.7261 23.4725 24.494C23.2553 24.2625 22.9148 24.1464 22.4511 24.1464H20.3396V28.8817ZM28.2357 26.3143C28.2357 26.9991 28.1196 27.5503 27.8875 27.9686C27.6559 28.3869 27.3077 28.691 26.844 28.8817C26.3797 29.0711 25.798 29.1664 25.0983 29.1664H21.3785C21.2942 29.1664 21.2242 29.1398 21.1671 29.0866C21.11 29.0334 21.0815 28.9654 21.0815 28.8817V25.1165C21.0815 25.0322 21.11 24.9641 21.1671 24.9103C21.2242 24.8578 21.2942 24.8305 21.3785 24.8305H22.656C22.7319 24.8305 22.7987 24.8578 22.8558 24.9103C22.9128 24.9641 22.9414 25.0322 22.9414 25.1165V27.6723H25.0412C25.5049 27.6723 25.8453 27.5542 26.0619 27.3182C26.2785 27.0821 26.3875 26.7475 26.3875 26.3143V22.9253C26.3875 22.8494 26.4154 22.7845 26.4724 22.7314C26.5302 22.6782 26.5963 22.6516 26.6722 22.6516H27.9504C28.034 22.6516 28.1021 22.6782 28.1559 22.7314C28.2085 22.7845 28.2357 22.8526 28.2357 22.9369V26.3143Z" fill="white"/>
</g>
<defs>
<clipPath id="clip0_18_214">
<rect width="32.2484" height="34.5" fill="white" transform="translate(0.375732 0.75)"/>
</clipPath>
</defs>
</svg>
