<svg width="35" height="32" viewBox="0 0 35 32" fill="none" xmlns="http://www.w3.org/2000/svg">
<path d="M31.1051 5.57888H18.6581C18.3691 5.58249 18.1037 5.42044 17.975 5.16198L16.9445 3.03152C16.6344 2.40346 16.1542 1.87515 15.5584 1.50661C14.9627 1.13806 14.2754 0.944199 13.575 0.947302H3.89499C2.89682 0.947302 1.93974 1.34378 1.23415 2.04962C0.528299 2.75521 0.131836 3.71229 0.131836 4.71046V27.2894C0.131836 28.2876 0.528313 29.2447 1.23415 29.9503C1.93974 30.6561 2.89682 31.0526 3.89499 31.0526H31.1055C32.1037 31.0526 33.0608 30.6561 33.7664 29.9503C34.4722 29.2447 34.8687 28.2876 34.8687 27.2894V9.34204C34.8687 8.34387 34.4722 7.38679 33.7664 6.6812C33.0608 5.97534 32.1037 5.57888 31.1055 5.57888L31.1051 5.57888ZM22.2237 17.8407C22.2237 18.1477 22.1017 18.4423 21.8846 18.6594C21.6675 18.8766 21.3731 18.9985 21.0658 18.9985H18.6576V21.4071C18.6576 21.8206 18.4368 22.2029 18.0786 22.4096C17.7204 22.6167 17.2789 22.6167 16.9207 22.4096C16.5625 22.2029 16.3418 21.8206 16.3418 21.4071V18.9988H13.9335V18.9986C13.5197 18.9986 13.1374 18.7778 12.9307 18.4196C12.7239 18.0614 12.7239 17.6199 12.9307 17.2617C13.1374 16.9035 13.5197 16.6828 13.9335 16.6828H16.3418V14.2745C16.3418 13.8607 16.5625 13.4784 16.9207 13.2717C17.2789 13.0649 17.7204 13.0649 18.0786 13.2717C18.4368 13.4784 18.6576 13.8607 18.6576 14.2745V16.6828H21.0658C21.3731 16.6828 21.6675 16.8048 21.8846 17.0219C22.1017 17.2392 22.2237 17.5336 22.2237 17.8407V17.8407Z" fill="white"/>
</svg>
