<svg width="22" height="19" viewBox="0 0 22 19" fill="none" xmlns="http://www.w3.org/2000/svg">
<path d="M21.5 2.84687C20.719 3.19822 19.8869 3.4311 19.0193 3.54418C19.9118 2.99764 20.593 2.1388 20.9133 1.10361C20.0812 1.61245 19.1624 1.97188 18.1833 2.17245C17.3932 1.30957 16.267 0.775146 15.0385 0.775146C12.655 0.775146 10.7362 2.75937 10.7362 5.19187C10.7362 5.54187 10.765 5.87841 10.8359 6.19879C7.25674 6.01975 4.08968 4.26033 1.96212 1.58015C1.59069 2.24111 1.37281 2.99764 1.37281 3.81206C1.37281 5.34129 2.14062 6.69687 3.28512 7.48167C2.59343 7.46821 1.91487 7.26225 1.34 6.93783C1.34 6.95129 1.34 6.96879 1.34 6.98629C1.34 9.13205 2.83231 10.9144 4.78924 11.3249C4.43881 11.4232 4.05687 11.4703 3.66049 11.4703C3.38487 11.4703 3.10662 11.4542 2.84543 11.3949C3.40324 13.1436 4.98612 14.4292 6.86824 14.4709C5.40349 15.6461 3.54368 16.3542 1.53031 16.3542C1.17725 16.3542 0.838624 16.338 0.5 16.2936C2.40706 17.5549 4.66718 18.2751 7.10449 18.2751C15.0267 18.2751 19.358 11.5444 19.358 5.71014C19.358 5.51495 19.3514 5.32648 19.3422 5.13937C20.1967 4.51745 20.9146 3.74072 21.5 2.84687Z" fill="#333333"/>
</svg>
