<svg width="24" height="24" viewBox="0 0 24 24" fill="none" xmlns="http://www.w3.org/2000/svg">
<path fill-rule="evenodd" clip-rule="evenodd" d="M22.2701 1.72988C19.9636 -0.576623 16.224 -0.576626 13.9175 1.72987L11.5738 4.07368C11.0795 4.56795 11.0795 5.36932 11.5738 5.86359C12.068 6.35786 12.8694 6.35786 13.3636 5.86359L15.7074 3.51978C17.0254 2.20182 19.1622 2.20182 20.4802 3.51978C21.7981 4.83774 21.7981 6.97458 20.4802 8.29254L15.7926 12.9802C14.4746 14.2981 12.3378 14.2981 11.0198 12.9802C10.5256 12.4859 9.72422 12.4859 9.22995 12.9802C8.73569 13.4744 8.73569 14.2758 9.22995 14.7701C11.5364 17.0766 15.276 17.0766 17.5825 14.7701L22.2701 10.0824C24.5766 7.77595 24.5766 4.03637 22.2701 1.72988ZM1.72986 22.27C4.03635 24.5765 7.7759 24.5765 10.0824 22.27L12.4262 19.9262C12.9205 19.4319 12.9205 18.6305 12.4262 18.1363C11.9319 17.642 11.1306 17.642 10.6363 18.1363L8.29249 20.4801C6.97454 21.798 4.83772 21.798 3.51976 20.4801C2.20181 19.1621 2.20181 17.0253 3.51976 15.7073L8.20736 11.0197C9.52531 9.70173 11.6621 9.70173 12.9801 11.0197C13.4744 11.514 14.2757 11.514 14.77 11.0197C15.2643 10.5254 15.2643 9.72406 14.77 9.22979C12.4635 6.92329 8.72395 6.92329 6.41746 9.22979L1.72987 13.9174C-0.576622 16.2239 -0.576621 19.9635 1.72986 22.27Z" fill="#333333"/>
</svg>
