<svg width="34" height="34" viewBox="0 0 34 34" fill="none" xmlns="http://www.w3.org/2000/svg">
<path d="M17 0.5C7.88759 0.5 0.5 7.88728 0.5 16.9993C0.5 20.2123 1.4212 23.2082 3.01048 25.7448C1.98139 28.7268 0.5 33.5 0.5 33.5C0.5 33.5 5.88059 31.8914 8.40075 31.0837C10.9057 32.6162 13.8491 33.5 17 33.5C26.1124 33.5 33.5 26.1127 33.5 17.0007C33.5 7.88866 26.1138 0.5 17 0.5ZM15.614 23.8873C8.55428 19.8638 6.27756 14.6259 7.71884 10.6798C9.1615 6.73237 12.5766 8.70609 13.9432 10.908C15.3098 13.11 12.8809 15.3105 12.8809 15.3105C14.5504 20.6245 19.4095 20.9274 19.4095 20.9274L20.7 19.334C21.9905 17.7393 24.4194 19.258 26.3171 21.536C28.2149 23.8126 22.6738 27.9122 15.614 23.8887V23.8873Z" fill="#A191F6"/>
</svg>
