<svg width="22" height="22" viewBox="0 0 22 22" fill="none" xmlns="http://www.w3.org/2000/svg">
<path d="M11 0C4.92506 0 0 4.92485 0 10.9995C0 13.1415 0.614134 15.1388 1.67365 16.8299C0.987593 18.8179 0 22 0 22C0 22 3.58706 20.9276 5.26716 20.3891C6.93713 21.4108 8.8994 22 11 22C17.0749 22 22 17.0752 22 11.0005C22 4.92577 17.0759 0 11 0ZM10.076 15.5915C5.36952 12.9092 3.85171 9.41724 4.81256 6.78654C5.77433 4.15491 8.05105 5.47072 8.96211 6.93868C9.87317 8.40664 8.25392 9.87367 8.25392 9.87367C9.36692 13.4163 12.6063 13.6183 12.6063 13.6183L13.4667 12.556C14.327 11.4929 15.9463 12.5053 17.2114 14.024C18.4766 15.5417 14.7825 18.2748 10.076 15.5924V15.5915Z" fill="#333333"/>
</svg>
